<svg xmlns="http://www.w3.org/2000/svg" viewBox="0 0 160 100">
  <!-- Фон -->
  <rect width="160" height="120" fill="#FFF"/>
  
  <!-- Реалистичный небоскрёб (центральный) -->
  <rect x="58" y="20" width="40" height="80" fill="rgba(36, 32, 29)"/>
  <!-- Окна небоскрёба -->
  <g fill="#DBA337">
    <rect x="65" y="25" width="6" height="8" rx="1"/>
    <rect x="75" y="25" width="6" height="8" rx="1"/>
    <rect x="85" y="25" width="6" height="8" rx="1"/>
    <rect x="65" y="40" width="6" height="8" rx="1"/>
    <rect x="75" y="40" width="6" height="8" rx="1"/>
    <rect x="85" y="40" width="6" height="8" rx="1"/>
    <rect x="65" y="55" width="6" height="8" rx="1"/>
    <rect x="75" y="55" width="6" height="8" rx="1"/>
    <rect x="85" y="55" width="6" height="8" rx="1"/>
    <rect x="65" y="70" width="6" height="8" rx="1"/>
    <rect x="75" y="70" width="6" height="8" rx="1"/>
  </g>
  
  <!-- Левое здание -->
  <rect x="24" y="40" width="31" height="60" fill="rgba(36, 32, 29, 0.8)"/>
  <g fill="#DBA337">
    <rect x="27" y="45" width="5" height="6" rx="0.5"/>
    <rect x="37" y="45" width="5" height="6" rx="0.5"/>
    <rect x="47" y="45" width="5" height="6" rx="0.5"/>
    <rect x="27" y="55" width="5" height="6" rx="0.5"/>
    <rect x="37" y="55" width="5" height="6" rx="0.5"/>
    <rect x="37" y="65" width="5" height="6" rx="0.5"/>
    <rect x="27" y="65" width="5" height="6" rx="0.5"/>
    <rect x="37" y="75" width="5" height="6" rx="0.5"/>
  </g>
  
  <!-- Правое здание -->
  <rect x="100" y="50" width="30" height="50" fill="rgba(36, 32, 29, 0.7)"/>
  <g fill="#DBA337">
    <rect x="103" y="55" width="5" height="6" rx="0.5"/>
    <rect x="123" y="55" width="5" height="6" rx="0.5"/>
    <rect x="113" y="55" width="5" height="6" rx="0.5"/>
    <rect x="113" y="65" width="5" height="6" rx="0.5"/>
    <rect x="103" y="65" width="5" height="6" rx="0.5"/>
  </g>
  
  <!-- Название компании -->
  <text x="80" y="109" font-size="10" fill="#dba337" 
        text-anchor="middle" font-family="Arial" font-weight="bold">
    CityGroup05
  </text>
</svg>